<svg id="visual" viewBox="0 0 1920 1080" width="1920" height="1080" xmlns="http://www.w3.org/2000/svg" xmlns:xlink="http://www.w3.org/1999/xlink" version="1.1"><rect x="0" y="0" width="1920" height="1080" fill="#001220"></rect><defs><linearGradient id="grad1_0" x1="43.8%" y1="0%" x2="100%" y2="100%"><stop offset="14.444444444444446%" stop-color="#fbae3c" stop-opacity="1"></stop><stop offset="85.55555555555554%" stop-color="#fbae3c" stop-opacity="1"></stop></linearGradient></defs><defs><linearGradient id="grad1_1" x1="43.8%" y1="0%" x2="100%" y2="100%"><stop offset="14.444444444444446%" stop-color="#fbae3c" stop-opacity="1"></stop><stop offset="85.55555555555554%" stop-color="#96446e" stop-opacity="1"></stop></linearGradient></defs><defs><linearGradient id="grad1_2" x1="43.8%" y1="0%" x2="100%" y2="100%"><stop offset="14.444444444444446%" stop-color="#001220" stop-opacity="1"></stop><stop offset="85.55555555555554%" stop-color="#96446e" stop-opacity="1"></stop></linearGradient></defs><defs><linearGradient id="grad2_0" x1="0%" y1="0%" x2="56.3%" y2="100%"><stop offset="14.444444444444446%" stop-color="#fbae3c" stop-opacity="1"></stop><stop offset="85.55555555555554%" stop-color="#fbae3c" stop-opacity="1"></stop></linearGradient></defs><defs><linearGradient id="grad2_1" x1="0%" y1="0%" x2="56.3%" y2="100%"><stop offset="14.444444444444446%" stop-color="#96446e" stop-opacity="1"></stop><stop offset="85.55555555555554%" stop-color="#fbae3c" stop-opacity="1"></stop></linearGradient></defs><defs><linearGradient id="grad2_2" x1="0%" y1="0%" x2="56.3%" y2="100%"><stop offset="14.444444444444446%" stop-color="#96446e" stop-opacity="1"></stop><stop offset="85.55555555555554%" stop-color="#001220" stop-opacity="1"></stop></linearGradient></defs><g transform="translate(1920, 0)"><path d="M0 810C-50.8 682.2 -101.6 554.5 -223.5 539.5C-345.4 524.6 -538.3 622.5 -572.8 572.8C-607.2 523 -483 325.6 -496.1 205.5C-509.2 85.4 -659.6 42.7 -810 0L0 0Z" fill="#3d3056"></path><path d="M0 540C-33.9 454.8 -67.7 369.7 -149 359.7C-230.2 349.7 -358.9 415 -381.8 381.8C-404.8 348.7 -322 217 -330.7 137C-339.5 57 -439.7 28.5 -540 0L0 0Z" fill="#e1685e"></path><path d="M0 270C-16.9 227.4 -33.9 184.8 -74.5 179.8C-115.1 174.9 -179.4 207.5 -190.9 190.9C-202.4 174.3 -161 108.5 -165.4 68.5C-169.7 28.5 -219.9 14.2 -270 0L0 0Z" fill="#fbae3c"></path></g><g transform="translate(0, 1080)"><path d="M0 -810C121.8 -817.3 243.6 -824.7 310 -748.3C376.4 -672 387.3 -512.1 417.2 -417.2C447.1 -322.3 495.9 -292.5 564.5 -233.8C633.1 -175.1 721.6 -87.6 810 0L0 0Z" fill="#3d3056"></path><path d="M0 -540C81.2 -544.9 162.4 -549.8 206.6 -498.9C250.9 -448 258.2 -341.4 278.1 -278.1C298 -214.9 330.6 -195 376.3 -155.9C422.1 -116.8 481 -58.4 540 0L0 0Z" fill="#e1685e"></path><path d="M0 -270C40.6 -272.4 81.2 -274.9 103.3 -249.4C125.5 -224 129.1 -170.7 139.1 -139.1C149 -107.4 165.3 -97.5 188.2 -77.9C211 -58.4 240.5 -29.2 270 0L0 0Z" fill="#fbae3c"></path></g></svg>