<svg id="visual" viewBox="0 0 1920 1080" width="1920" height="1080" xmlns="http://www.w3.org/2000/svg" xmlns:xlink="http://www.w3.org/1999/xlink" version="1.1"><rect x="0" y="0" width="1920" height="1080" fill="#E6E6E6"></rect><defs><linearGradient id="grad1_0" x1="43.8%" y1="0%" x2="100%" y2="100%"><stop offset="14.444444444444446%" stop-color="#e6e6e6" stop-opacity="1"></stop><stop offset="85.55555555555554%" stop-color="#e6e6e6" stop-opacity="1"></stop></linearGradient></defs><defs><linearGradient id="grad2_0" x1="0%" y1="0%" x2="56.3%" y2="100%"><stop offset="14.444444444444446%" stop-color="#e6e6e6" stop-opacity="1"></stop><stop offset="85.55555555555554%" stop-color="#e6e6e6" stop-opacity="1"></stop></linearGradient></defs><g transform="translate(1920, 0)"><path d="M0 594C-125.3 590.8 -250.6 587.6 -297 514.4C-343.4 441.2 -310.9 297.9 -347.3 200.5C-383.6 103.1 -488.8 51.5 -594 0L0 0Z" fill="#E2D9D0"></path></g><g transform="translate(0, 1080)"><path d="M0 -594C107.3 -580.4 214.6 -566.8 297 -514.4C379.4 -462 437 -370.7 482.4 -278.5C527.7 -186.3 560.9 -93.1 594 0L0 0Z" fill="#E2D9D0"></path></g></svg>