<svg id="visual" viewBox="0 0 1920 1080" width="1920" height="1080" xmlns="http://www.w3.org/2000/svg" xmlns:xlink="http://www.w3.org/1999/xlink" version="1.1"><rect x="0" y="0" width="1920" height="1080" fill="#E6E6E6"></rect><path d="M0 390L45.7 388.5C91.3 387 182.7 384 274.2 381.2C365.7 378.3 457.3 375.7 548.8 374.5C640.3 373.3 731.7 373.7 823 367.2C914.3 360.7 1005.7 347.3 1097 331.5C1188.3 315.7 1279.7 297.3 1371.2 303C1462.7 308.7 1554.3 338.3 1645.8 355.8C1737.3 373.3 1828.7 378.7 1874.3 381.3L1920 384L1920 0L1874.3 0C1828.7 0 1737.3 0 1645.8 0C1554.3 0 1462.7 0 1371.2 0C1279.7 0 1188.3 0 1097 0C1005.7 0 914.3 0 823 0C731.7 0 640.3 0 548.8 0C457.3 0 365.7 0 274.2 0C182.7 0 91.3 0 45.7 0L0 0Z" fill="#e6e6e6"></path><path d="M0 325L45.7 326.5C91.3 328 182.7 331 274.2 317C365.7 303 457.3 272 548.8 258C640.3 244 731.7 247 823 252.2C914.3 257.3 1005.7 264.7 1097 258.8C1188.3 253 1279.7 234 1371.2 224.2C1462.7 214.3 1554.3 213.7 1645.8 219.7C1737.3 225.7 1828.7 238.3 1874.3 244.7L1920 251L1920 0L1874.3 0C1828.7 0 1737.3 0 1645.8 0C1554.3 0 1462.7 0 1371.2 0C1279.7 0 1188.3 0 1097 0C1005.7 0 914.3 0 823 0C731.7 0 640.3 0 548.8 0C457.3 0 365.7 0 274.2 0C182.7 0 91.3 0 45.7 0L0 0Z" fill="#e1ddd9"></path><path d="M0 205L45.7 204.2C91.3 203.3 182.7 201.7 274.2 207.7C365.7 213.7 457.3 227.3 548.8 238.5C640.3 249.7 731.7 258.3 823 247.8C914.3 237.3 1005.7 207.7 1097 200.2C1188.3 192.7 1279.7 207.3 1371.2 224.5C1462.7 241.7 1554.3 261.3 1645.8 270.8C1737.3 280.3 1828.7 279.7 1874.3 279.3L1920 279L1920 0L1874.3 0C1828.7 0 1737.3 0 1645.8 0C1554.3 0 1462.7 0 1371.2 0C1279.7 0 1188.3 0 1097 0C1005.7 0 914.3 0 823 0C731.7 0 640.3 0 548.8 0C457.3 0 365.7 0 274.2 0C182.7 0 91.3 0 45.7 0L0 0Z" fill="#dcd4cc"></path><path d="M0 184L45.7 175C91.3 166 182.7 148 274.2 134.7C365.7 121.3 457.3 112.7 548.8 119.5C640.3 126.3 731.7 148.7 823 164.3C914.3 180 1005.7 189 1097 186.5C1188.3 184 1279.7 170 1371.2 166C1462.7 162 1554.3 168 1645.8 168.3C1737.3 168.7 1828.7 163.3 1874.3 160.7L1920 158L1920 0L1874.3 0C1828.7 0 1737.3 0 1645.8 0C1554.3 0 1462.7 0 1371.2 0C1279.7 0 1188.3 0 1097 0C1005.7 0 914.3 0 823 0C731.7 0 640.3 0 548.8 0C457.3 0 365.7 0 274.2 0C182.7 0 91.3 0 45.7 0L0 0Z" fill="#d7cbbf"></path><path d="M0 57L45.7 55.7C91.3 54.3 182.7 51.7 274.2 56.8C365.7 62 457.3 75 548.8 79.3C640.3 83.7 731.7 79.3 823 87C914.3 94.7 1005.7 114.3 1097 119.5C1188.3 124.7 1279.7 115.3 1371.2 100.5C1462.7 85.7 1554.3 65.3 1645.8 58.5C1737.3 51.7 1828.7 58.3 1874.3 61.7L1920 65L1920 0L1874.3 0C1828.7 0 1737.3 0 1645.8 0C1554.3 0 1462.7 0 1371.2 0C1279.7 0 1188.3 0 1097 0C1005.7 0 914.3 0 823 0C731.7 0 640.3 0 548.8 0C457.3 0 365.7 0 274.2 0C182.7 0 91.3 0 45.7 0L0 0Z" fill="#d1c3b3"></path></svg>